<?xml version="1.0" encoding="UTF-8" standalone="no"?>
<!DOCTYPE svg PUBLIC "-//W3C//DTD SVG 1.1//EN" "http://www.w3.org/Graphics/SVG/1.1/DTD/svg11.dtd">
<svg width="100%" height="100%" viewBox="0 0 512 512" version="1.1" xmlns="http://www.w3.org/2000/svg" xmlns:xlink="http://www.w3.org/1999/xlink" xml:space="preserve" xmlns:serif="http://www.serif.com/" style="fill-rule:evenodd;clip-rule:evenodd;stroke-linejoin:round;stroke-miterlimit:2;">
    <g id="Artboard1" transform="matrix(1,0,0,1,-994,-1415)">
        <rect x="994" y="1415" width="512" height="512" style="fill:none;"/>
        <g id="SImonogramInvertedRounded.png" transform="matrix(1,0,0,1,997,1422)">
            <path d="M160.495,212.716C383.388,215.621 398.687,209.704 439.291,230.892C491.626,258.202 485.265,305.33 485.282,357.501C485.307,438.467 485.38,438.447 485.233,445.484C485.182,447.948 482.807,447.679 482.503,447.679C474.582,447.686 385.489,447.766 383.491,447.63C383.241,447.613 381.226,447.475 381.166,445.536C380.913,437.429 381.159,345.22 381.183,336.497C381.271,303.523 382.469,293.719 348.473,290.913C317.647,288.368 147.229,292.591 118.494,288.549C8.388,273.061 3.254,153.413 44.57,102.555C85.258,52.47 138.432,58.612 187.5,57.874C195.156,57.759 360.537,57.475 362.494,57.601C367.294,57.909 366.235,59.72 366.273,64.503C366.332,71.857 366.994,154.109 366.183,156.43C365.322,158.893 364.031,157.707 209.5,158.093C149.087,158.244 126.109,155.442 126.78,187.494C127.297,212.14 149.636,211.855 160.495,212.716Z" style="fill:white;"/>
            <path d="M65.5,447.691C13.567,447.647 9.22,449.18 11.456,445.475C12.01,444.556 70.105,360.195 72.768,356.685C80.728,346.193 83.139,347.881 159.501,347.79C291.076,347.633 291.06,347.441 302.5,347.437C333.054,347.427 332.981,347.7 363.497,346.284C366.86,346.128 366.093,348.142 366.113,383.5C366.148,446.079 366.536,447.139 364.522,447.591C363.632,447.791 260.94,447.619 65.5,447.691Z" style="fill:white;"/>
            <path d="M431.399,210.752C406.823,201.312 393.546,202.159 389.647,200.175C379.079,194.801 381.193,185.515 381.172,177.502C381.146,168.056 380.855,60.921 381.224,59.429C381.626,57.806 382.328,57.736 414.501,57.749C483.517,57.777 484.933,57.115 485.219,59.534C485.418,61.211 485.286,164.382 485.275,173.5C485.175,251.904 485.823,252.799 484.556,252.828C483.497,252.852 483.76,252.444 482.096,249.819C479.797,246.19 470.374,235.754 467.125,232.932C449.975,218.038 439.753,214.647 431.399,210.752Z" style="fill:white;"/>
        </g>
    </g>
</svg>
