<?xml version="1.0" encoding="UTF-8" standalone="no"?>
<!DOCTYPE svg PUBLIC "-//W3C//DTD SVG 1.1//EN" "http://www.w3.org/Graphics/SVG/1.1/DTD/svg11.dtd">
<svg width="100%" height="100%" viewBox="0 0 2500 500" version="1.1" xmlns="http://www.w3.org/2000/svg" xmlns:xlink="http://www.w3.org/1999/xlink" xml:space="preserve" xmlns:serif="http://www.serif.com/" style="fill-rule:evenodd;clip-rule:evenodd;stroke-linejoin:round;stroke-miterlimit:2;">
    <g transform="matrix(2.664062,0,0,2.664062,-111,-430)">
        <path d="M310.151,276.538C310.65,282.251 310.512,282.243 310.564,300.5C310.569,302.34 310.624,321.597 310.5,323.5C310.487,323.692 310.447,325.392 308.504,325.539C307.464,325.618 274.137,325.693 273.49,325.543C271.858,325.167 272.056,324.526 272.067,313.499C272.098,284.073 272.115,284.076 272.051,281.519C271.913,275.913 268.328,269.093 258.484,268.871C250.835,268.699 168.544,269.177 164.487,268.613C158.945,267.843 158.903,268.039 153.56,266.328C143.627,263.145 137.017,257.66 131.801,250.29C129.722,247.353 126.866,240.443 126.278,237.549C125.111,231.798 125.062,230.174 125.042,229.525C124.86,223.512 124.832,223.502 125.896,217.573C126.985,211.502 130.35,203.144 136.635,196.629C139.46,193.702 148.734,184.12 167.5,182.502C169.772,182.306 200.319,182.411 227.5,182.375C230.14,182.371 258.804,182.333 260.505,182.375C263.426,182.448 262.939,183.573 262.964,186.496C263.091,200.867 262.847,205.597 263.042,211.498C263.05,211.747 263.125,214.006 262.598,214.579C261.861,215.382 261.661,215.161 239.5,215.196C176.385,215.297 176.313,214.791 172.586,215.808C169.955,216.527 168.387,217.139 166.405,219.419C161.483,225.082 162.559,238.074 175.504,238.35C180.831,238.463 264.6,238.203 267.501,238.492C269.463,238.688 305.055,239.783 310.151,276.538Z"/>
        <path d="M152.499,288.902C170.964,288.855 250.449,288.91 259.499,288.874C262.147,288.864 262.914,288.845 262.947,291.491C262.971,293.411 262.886,293.408 262.965,315.496C262.988,321.889 263.589,325.14 261.515,325.573C261.381,325.601 261.388,325.589 136.5,325.615C118.519,325.619 118.516,325.628 118.455,325.608C118.262,325.544 117.654,324.709 117.657,324.521C117.663,324.063 117.91,324.171 120.967,319.849C121.429,319.196 121.559,319.309 126.96,311.857C128.425,309.837 130.057,307.732 130.332,307.378C133.382,303.445 137.028,298.365 137.597,297.572C143.316,289.602 143.56,289.508 144.364,289.2C145.417,288.795 147.03,288.884 152.499,288.902Z"/>
        <path d="M618.499,223.122C621.039,223.12 636.247,223.139 636.517,223.151C640.824,223.339 642.877,226.068 643.182,228.554C643.437,230.64 642.52,233.129 642.42,233.478C640.66,239.631 640.388,240.557 638.322,242.274C636.192,244.045 635.97,243.679 635.788,243.832C635.643,243.954 635.425,245.087 635.575,245.465C635.625,245.593 637.739,247.49 636.572,251.522C634.429,258.931 633.837,259.814 633.415,260.443C630.96,264.106 627.07,265.679 624.532,265.875C622.057,266.066 622.058,266.002 593.5,266.005C591.654,266.005 571.05,266.007 570.427,265.922C569.206,265.754 568.985,265.743 568.815,264.507C568.778,264.238 569.901,260.939 570.067,260.375C570.11,260.227 577.585,236.822 577.675,236.568C578.036,235.551 581.116,224.738 581.897,223.874C582.852,222.817 583.155,223.191 618.499,223.122ZM584.801,252.594C584.468,253.582 583.332,255.965 584.034,256.819C584.882,257.853 585.153,257.494 595.5,257.553C618.485,257.685 618.507,257.748 620.459,257.329C621.199,257.17 623.198,256.842 624.271,251.464C624.735,249.14 622.704,248.788 622.446,248.743C621.326,248.549 599.718,248.772 589.5,248.65C585.925,248.607 585.761,249.247 584.801,252.594ZM629.03,237.32C629.596,235.682 629.597,235.694 629.641,235.551C631.032,231.115 627.543,231.431 625.501,231.422C623.581,231.413 609.742,231.35 601.499,231.433C593.403,231.514 591.547,231.261 590.945,232.724C590.913,232.801 589.175,238.119 589.157,238.486C589.149,238.668 589.08,240.113 590.531,240.307C591.565,240.446 620.86,240.284 623.498,240.27C628.168,240.244 628.032,238.916 629.03,237.32Z" style="fill:rgb(2,2,2);"/>
        <path d="M309.701,257.085C307.481,254.29 308.973,252.781 299.724,244.253C296.67,241.437 288.89,235.919 278.567,233.266C276.369,232.701 272.171,232.855 272.077,227.514C272.036,225.203 272.067,184.784 272.098,184.459C272.256,182.746 272.946,182.426 274.496,182.398C277.136,182.349 277.133,182.468 307.5,182.35C311.17,182.336 310.529,183.819 310.542,187.5C310.65,219.519 310.313,248.503 310.772,254.542C310.784,254.708 310.902,256.251 310.616,256.619C310.406,256.889 309.911,256.815 309.701,257.085Z"/>
        <path d="M696.5,223.127L711.498,223.148C715.005,223.139 718.984,222.713 721.264,224.774C725.054,228.201 722.818,232.78 722.257,234.414C720.031,240.89 719.885,244.874 716.542,247.549C710.933,252.035 709.473,250.945 707.457,251.335C705.104,251.791 706.85,254.099 708.635,257.426C711.746,263.227 711.781,263.201 712.036,263.713C712.122,263.886 713.007,265.663 711.415,266.052C710.795,266.204 710.137,266.046 709.499,266.023C701.176,265.718 701.174,265.991 700.453,265.92C697.907,265.669 698.501,264.651 693.79,256.339C692.936,254.831 692.091,252.061 690.479,251.564C688.798,251.047 688.755,251.367 668.499,251.324C665.627,251.318 665.521,251.825 664.667,254.556C664.493,255.111 662.842,260.391 662.435,261.475C661.169,264.852 661.29,265.617 659.446,266.003C659.397,266.013 650.815,265.983 650.341,265.827C650.222,265.787 649.473,265.54 649.512,264.5C649.518,264.353 653.722,250.69 655.703,244.565C662.185,224.523 661.596,223.783 663.427,223.259C663.945,223.111 663.958,223.134 696.5,223.127ZM678.498,243.119C689.2,243.076 692.404,243.132 697.496,243.109C705.116,243.075 706.814,243.583 708.349,239.438C709.95,235.115 711.044,232.305 708.462,231.628C706.917,231.222 706.89,231.441 688.5,231.444C673.881,231.446 673.801,231.228 672.675,231.808C672.152,232.078 671.619,232.352 669.861,238.603C669,241.665 668.97,241.72 669.345,242.638C669.598,243.256 670.474,243.12 678.498,243.119Z" style="fill:rgb(2,2,2);"/>
        <path d="M893.546,241.706C893.243,242.027 892.849,242.251 892.546,242.572C892.092,243.052 892.251,243.173 889.72,245.722C888.205,247.248 874.982,260.564 870.694,264.705C869.357,265.997 868.537,266.051 866.491,265.94C863.47,265.778 863.763,264.886 862.66,261.446C859.742,252.353 859.873,252.327 856.904,243.239C856.474,241.919 856.538,241.876 856.333,241.76C855.509,241.299 854.909,242.535 854.849,242.66C854.64,243.089 855.018,243.2 853.251,248.409C852.062,251.913 848.459,264.595 847.443,265.43C846.757,265.993 846.428,266.049 838.47,265.974C835.312,265.944 836.238,264.422 837.142,261.397C840.443,250.355 840.576,250.409 848.134,226.381C848.93,223.849 848.842,223.204 851.49,223.16C861.648,222.991 861.737,223.056 862.447,223.572C863.189,224.113 863.838,226.607 864.189,227.619C869.507,242.937 870.296,245.805 870.739,247.413C871.805,251.289 873.821,247.671 877.873,243.892C895.761,227.208 897.764,223.535 900.461,223.175C900.919,223.114 908.188,223.115 908.541,223.162C912.238,223.654 910.845,228.122 910.706,228.566C908.149,236.765 899.967,263.768 899.597,264.551C898.684,266.488 896.11,265.928 891.494,265.93C889.495,265.931 888.771,266.074 888.589,266.004C888.455,265.953 887.447,265.569 887.604,264.509C887.669,264.071 890.832,253.773 890.878,253.61C892.459,248.076 893.572,245.253 893.852,244.542C893.914,244.386 894.542,242.793 894.429,242.52C894.275,242.15 893.699,242.076 893.546,241.706Z" style="fill:rgb(3,2,2);"/>
        <path d="M524.498,223.12C531.498,223.123 538.499,223.126 545.499,223.13C563.537,223.127 563.535,223.152 563.589,223.164C564.728,223.404 564.812,224.318 564.825,224.46C564.879,225.043 563.111,230.288 563.104,230.305C562.43,231.904 558.94,231.431 556.5,231.425C553.3,231.417 531.55,231.36 516.5,231.488C511.929,231.526 511.882,233.655 511.126,236.408C510.533,238.566 509.205,240.26 512.512,240.282C534.021,240.426 534.004,240.178 555.504,240.275C557.027,240.282 559.121,240.065 558.491,242.498C557.06,248.016 556.006,248.326 555.493,248.477C554.122,248.881 510.012,248.492 508.538,248.723C506.357,249.065 505.846,252.552 505.549,253.517C505.421,253.935 504.524,255.882 505.2,256.698C505.908,257.554 506.778,257.55 508.499,257.568C516.004,257.649 515.991,257.555 523.5,257.59C537.513,257.656 537.496,257.457 551.502,257.454C554.795,257.453 553.642,259.376 552.665,262.553C552.592,262.791 551.912,265 551.428,265.414C550.64,266.086 550.506,265.946 538.493,266.009C535.493,266.024 535.517,265.968 532.5,265.964C499.394,265.917 496.609,266.348 494.689,265.167C490.307,262.471 491.793,258.279 493.646,252.544C497.86,239.508 497.812,239.514 498.19,238.386C501.106,229.678 500.333,228.213 505.237,225.067C508.891,222.722 509.365,223.168 524.498,223.12Z" style="fill:rgb(3,2,2);"/>
        <path d="M445.501,223.118C483.97,223.16 483.995,223.012 484.622,223.244C485.623,223.614 485.267,225.259 485.228,225.437C485.077,226.138 483.947,229.875 483.571,230.551C482.944,231.679 482.579,231.368 469.5,231.467C452.301,231.596 436.74,231.084 434.674,231.888C432.902,232.578 432.287,235.092 432.205,235.428C431.372,238.833 431.221,240.166 434.509,240.289C438.186,240.427 469.942,239.996 472.479,240.588C476.708,241.573 479.299,245.063 478.033,249.364C475.061,259.457 474.1,260.655 473.453,261.462C469.999,265.765 465.317,265.886 464.519,265.907C459.841,266.028 449.375,265.851 414.503,266.041C413.851,266.045 413.192,266.143 412.546,266.053C410.243,265.729 410.934,264.771 411.62,262.536C412.789,258.73 412.513,257.58 416.5,257.571C460.597,257.471 460.693,257.813 462.296,257.098C464.408,256.155 465.832,250.642 464.618,249.385C463.677,248.41 463.414,248.774 434.5,248.641C425.238,248.598 421.745,249.543 419.015,244.752C417.488,242.072 419.162,239.08 419.793,236.581C420.054,235.548 421.717,230.25 421.96,229.72C422.246,229.098 424.061,226.065 427.511,224.523C431.026,222.952 431.146,223.121 445.501,223.118Z" style="fill:rgb(2,2,2);"/>
        <path d="M777.496,223.139C778.522,223.128 781.862,222.916 782.414,223.577C783.042,224.328 782.162,226.336 781.8,227.582C779.792,234.485 778.006,239.73 776.816,243.596C773.388,254.73 772.712,254.797 773.466,256.52C773.816,257.317 775.32,257.482 775.5,257.502C777.151,257.682 795.74,257.568 797.5,257.557C808.1,257.491 808.464,257.592 809.835,255.727C810.728,254.512 814.977,240.376 819.289,226.428C820.19,223.511 820.454,223.139 823.497,223.135C828.961,223.129 831.065,223.006 831.539,223.454C832.538,224.399 831.825,224.613 830.973,227.629C829.107,234.235 826.245,243.253 825.816,244.606C821.163,259.264 821.131,259.309 820.358,260.399C818.054,263.643 814.938,264.923 814.364,265.164C813.265,265.625 811.755,266.258 799.499,266.023C779.069,265.63 766.2,266.641 763.585,265.314C758.11,262.535 760.38,257.263 760.635,256.548C760.844,255.961 769.929,226.216 770.635,224.566C771.384,222.813 773.134,223.162 777.496,223.139Z" style="fill:rgb(3,3,3);"/>
        <path d="M748.495,223.13C749.384,223.123 753.028,222.959 753.528,223.469C754.277,224.232 754.164,224.501 750.348,236.456C744.768,253.935 744.85,253.938 744.338,255.447C743.582,257.672 741.925,263.466 741.449,264.472C740.734,265.987 740.352,266.01 731.478,265.965C728.317,265.949 729.225,264.404 730.216,261.4C732.989,252.995 736.936,239.934 737.125,239.372C739.863,231.213 741.145,226.036 741.811,224.651C742.732,222.734 744.811,223.147 748.495,223.13Z" style="fill:rgb(4,3,3);"/>
        <path d="M509.502,281.952C523.439,281.912 525.53,281.701 526.607,283.41C527.977,285.584 526.921,287.423 525.967,290.644C524.195,296.626 524.221,299.514 516.5,299.538C515.46,299.542 503.937,299.578 503.498,299.514C502.242,299.332 502.009,298.559 501.966,298.415C501.81,297.898 504.723,288.758 505.839,284.582C506.649,281.553 507.495,282.171 509.502,281.952ZM514.501,295.912C517.037,295.858 517.1,296.203 518.535,295.568C520.051,294.896 520.909,290.199 521.135,289.402C521.741,287.269 522.549,286.514 520.422,285.846C520.266,285.797 517.733,285.806 517.499,285.806C511.849,285.826 510.797,285.243 509.92,288.605C509.29,291.022 509.135,290.961 508.499,293.5C508.462,293.651 508.139,294.94 508.561,295.446C509.06,296.046 512.311,295.905 514.501,295.912Z" style="fill:rgb(6,6,6);"/>
        <path d="M360.203,185.503C360.215,196.616 360.348,323.511 360.148,324.415C360.115,324.562 359.787,326.045 358.548,325.415C357.591,324.928 357.909,324.54 357.867,290.498C357.856,281.946 357.734,184.159 357.91,183.594C358.458,181.839 359.581,181.811 360.157,183.572C360.205,183.719 360.16,183.715 360.203,185.503Z" style="fill:rgb(34,34,34);"/>
        <path d="M729.487,294.073C728.351,294.272 727.296,293.526 726.229,296.392C725.252,299.015 725.294,299.676 722.494,299.589C719.643,299.5 721.02,296.893 721.166,296.405C722.622,291.544 724.63,283.355 725.55,282.555C725.953,282.204 725.996,281.945 738.499,281.927C739.219,281.926 747.222,280.932 745.716,286.566C744.553,290.918 744.116,291.43 743.829,291.767C742.051,293.854 739.542,293.316 740.805,296.391C741.516,298.122 741.599,298.105 741.58,298.509C741.505,300.072 737.31,299.885 736.399,298.588C735.663,297.54 734.746,295.241 734.243,294.77C733.223,293.815 730.036,294.078 729.487,294.073ZM735.494,290.167C736.485,290.083 736.475,290.224 737.473,290.139C737.57,290.131 738.143,290.082 738.664,289.897C739.742,289.515 741.263,287.171 739.844,286.055C739.032,285.416 730.929,285.817 730.313,286.024C729.131,286.423 727.913,288.81 729.189,289.899C729.672,290.312 730.571,290.195 735.494,290.167Z" style="fill:rgb(7,7,7);"/>
        <path d="M823.505,281.951C827.302,282.055 837.929,281.873 838.477,281.916C841.487,282.155 840.047,284.8 839.342,285.278C837.993,286.193 825.683,285.441 824.566,285.805C822.29,286.546 823.315,288.526 823.404,288.616C823.997,289.219 832.795,288.829 834.482,288.914C837.902,289.084 836.26,291.498 835.874,291.865C834.604,293.071 828.035,292.354 823.503,292.553C823.253,292.564 821.008,292.663 821.052,294.498C821.109,296.817 822.446,295.673 834.468,295.91C837.09,295.962 836.231,298.19 835.761,298.706C834.949,299.6 833.786,299.526 832.5,299.53C825.496,299.554 825.515,299.506 818.501,299.564C815.827,299.586 814.456,300.025 815.016,297.425C815.191,296.609 818.392,285.632 818.721,284.568C819.63,281.624 820.43,282.16 823.505,281.951Z" style="fill:rgb(6,6,6);"/>
        <path d="M630.496,288.95C633.526,289.187 636.567,289.223 634.433,295.478C632.775,300.336 628.851,299.435 619.5,299.516C615.986,299.546 612.644,299.907 612.395,298.529C612.024,296.473 614.16,296.083 614.412,296.037C616.929,295.579 627.854,296.605 629.284,295.268C630.009,294.59 630.252,292.786 628.493,292.539C626.161,292.212 617.524,293.427 615.717,291.313C614.397,289.769 615.276,284.145 619.481,282.458C621.351,281.708 624.917,281.972 635.493,281.943C639.863,281.931 637.656,285.234 636.531,285.588C634.562,286.208 622.82,284.878 621.3,286.306C620.26,287.283 620.96,288.539 621.363,288.716C621.994,288.993 623.404,288.933 630.496,288.95Z" style="fill:rgb(5,5,5);"/>
        <path d="M884.498,281.952C892.799,281.939 894.006,281.82 894.557,282.453C895.138,283.121 894.529,284.331 894.456,284.476C893.738,285.902 892.655,285.693 884.501,285.708C881.892,285.713 877.759,285.215 877.685,287.512C877.645,288.747 879.261,288.919 879.44,288.938C883.769,289.398 893.385,286.878 892.144,293.427C890.78,300.62 885.734,299.384 878.5,299.483C871.532,299.578 870.251,299.629 869.778,299.194C869.262,298.719 869.199,296.557 871.396,296.059C873.558,295.568 884.953,296.546 886.29,295.286C886.403,295.179 888.243,292.549 884.501,292.482C878.962,292.384 872.3,293.456 872.063,289.529C872.063,289.522 872.509,285.385 874.543,283.553C876.553,281.744 879.531,281.939 884.498,281.952Z" style="fill:rgb(5,5,4);"/>
        <path d="M453.508,281.958C453.848,281.988 454.189,282.004 454.529,282.034C456.966,282.249 456.794,282.823 460.378,287.588C463.548,291.802 463.277,292.032 463.677,292.253C463.918,292.387 465.002,292.294 465.125,292.171C465.357,291.937 467.104,285.314 467.713,283.578C468.645,280.922 472.328,282.192 472.542,282.466C472.965,283.006 472.571,284.35 472.525,284.507C469.576,294.579 469.614,294.58 469.341,295.45C468.624,297.725 468.991,297.948 467.861,298.951C467.476,299.293 464.934,300.329 462.452,298.552C462.178,298.356 462.17,298.35 459.81,295.269C456.137,290.475 456.36,290.331 456.041,289.917C455.339,289.007 454.568,289.347 454.446,289.401C453.677,289.739 452.079,297.388 451.404,298.44C450.43,299.96 447.7,299.558 447.5,299.499C445.848,299.007 446.874,297.449 450.19,285.409C451.34,281.234 452.801,282.149 453.508,281.958Z" style="fill:rgb(7,7,7);"/>
        <path d="M568.498,295.902C572.593,295.895 574.043,296.331 574.941,293.655C575.953,290.64 577.729,283.497 578.572,282.568C579.089,281.998 582.325,281.582 582.653,282.332C583.292,283.788 582.671,284.646 582.232,286.432C582.099,286.973 580.027,293.945 579.833,294.598C578.091,300.46 574.04,299.422 566.5,299.506C562.766,299.548 558.336,300.255 557.861,296.483C557.711,295.298 561.156,283.478 561.78,282.738C562.591,281.776 565.41,281.93 565.422,281.934C566.917,282.448 566.613,282.903 566.216,284.43C563.625,294.404 562.55,295.223 564.377,295.792C564.755,295.909 568.168,295.902 568.498,295.902Z" style="fill:rgb(7,7,7);"/>
        <path d="M674.503,281.95C685.152,281.933 685.148,281.96 686.501,282.002C688.304,282.058 692.795,281.104 691.381,284.446C690.319,286.956 685.682,285.035 683.324,286.264C682.234,286.832 681.011,293.165 679.565,297.524C678.882,299.58 677.678,299.584 676.497,299.596C673.416,299.629 674.485,297.801 674.852,296.608C675.074,295.883 677.178,289.03 677.467,287.496C677.633,286.61 677.527,286.558 676.784,286.043C676.441,285.804 676.403,285.911 672.474,285.833C670.457,285.792 669.847,285.406 670.563,283.525C671.283,281.633 673.74,281.963 674.503,281.95Z" style="fill:rgb(8,8,8);"/>
        <path d="M414.515,281.94C416.223,282.271 416.935,281.741 417.103,283.477C417.106,283.513 416.755,284.981 416.585,285.528C413.557,295.313 413.221,297.508 412.636,298.593C411.989,299.793 409.755,299.588 409.493,299.564C409.334,299.55 408.12,299.438 407.842,298.45C407.695,297.927 409.222,292.931 409.367,292.458C412.287,282.904 412.108,282.553 413.373,282.14C413.741,282.02 414.148,282.06 414.515,281.94Z" style="fill:rgb(8,8,8);"/>
        <path d="M783.486,281.936C783.851,282.075 786.034,281.555 785.207,284.417C781.1,298.626 781.121,298.764 780.323,299.2C780.128,299.306 775.676,300.763 776.308,297.465C776.447,296.74 776.578,296.784 778.879,288.607C780.533,282.727 780.9,282.555 781.39,282.325C781.39,282.325 783.318,281.967 783.486,281.936Z" style="fill:rgb(9,9,9);"/>
    </g>
</svg>
