<?xml version="1.0" encoding="UTF-8" standalone="no"?>
<!DOCTYPE svg PUBLIC "-//W3C//DTD SVG 1.1//EN" "http://www.w3.org/Graphics/SVG/1.1/DTD/svg11.dtd">
<svg width="100%" height="100%" viewBox="0 0 2500 500" version="1.1" xmlns="http://www.w3.org/2000/svg" xmlns:xlink="http://www.w3.org/1999/xlink" xml:space="preserve" xmlns:serif="http://www.serif.com/" style="fill-rule:evenodd;clip-rule:evenodd;stroke-linejoin:round;stroke-miterlimit:2;">
    <g id="Background" transform="matrix(2.462384,0,0,2.462384,-6.740741,63.481481)">
        <path d="M1022.5,144.999L1.5,144.999C1.445,144.707 1.07,144.221 1.035,142.515C1.032,142.388 1.034,3.548 1.035,3.488C1.059,1.875 0.815,1.43 2.378,1.065C2.422,1.054 2.419,1.031 1015.5,1.034C1021.484,1.034 1022.895,0.499 1022.965,3.487C1022.966,3.522 1022.966,142.401 1022.965,142.516C1022.942,144.12 1022.538,144.795 1022.5,144.999Z" style="fill:rgb(253,253,253);"/>
        <path d="M934.5,25.966C943.535,25.959 949.036,25.753 953.5,25.727C966.548,25.654 967.339,26.662 968.438,26.855C973.402,27.726 975.604,28.89 978.608,30.258C982.174,31.881 986.569,35.189 988.709,37.285C996.929,45.339 1004.4,61.254 997.738,82.59C995.786,88.842 990.331,97.95 986.271,102.287C977.793,111.345 973.314,113.775 969.734,115.909C959.287,122.138 951.879,123.354 948.423,124.24C945.002,125.116 944.953,124.717 941.443,125.177C933.53,126.213 933.512,125.905 924.518,125.245C919.271,124.861 914.657,124.927 912.48,124.689C907.496,124.145 907.522,124.015 902.5,124.034C894.353,124.067 894.399,124.669 890.516,124.834C881.767,125.204 880.314,124.882 879.45,124.69C877.013,124.149 876.998,124.543 874.502,124.617C871.769,124.698 864.99,125.143 860.5,124.504C852.313,123.339 852.393,122.962 849.45,121.599C840.009,117.227 838.602,104.245 834.331,91.561C833.816,90.03 833.927,89.557 833.608,88.466C831.989,82.93 831.54,80.338 828.476,79.594C824.393,78.601 823.719,83.435 822.209,88.412C821.989,89.137 819.652,96.837 819.409,97.461C818.978,98.565 818.671,99.719 815.705,109.569C813.22,117.82 819.063,117.721 824.453,119.627C827.941,120.861 825.623,124.12 824.536,124.574C822.668,125.353 805.672,124.65 804.496,124.563C803.618,124.498 797.817,124.07 793.495,124.439C792.299,124.541 785.082,125.158 778.5,124.937C772.152,124.725 761.996,125.245 752.505,124.439C747.509,124.015 727.086,125.329 722.461,124.909C722.19,124.884 719.701,124.658 720.149,122.407C720.732,119.482 727.132,119.148 730.379,117.28C735.476,114.348 735.233,113.426 739.653,95.538C740.74,91.14 742.032,89.034 737.487,88.899C735.433,88.838 718.18,88.886 716.501,88.891C712.401,88.902 711.709,89.766 707.31,95.358C699.337,105.495 697.91,107.101 696.406,111.463C694.297,117.583 703.377,119.171 705.593,120.35C707.102,121.152 708.85,124.672 702.516,124.891C696.811,125.088 689.611,124.852 688.489,124.815C683,124.636 683.014,124.747 677.508,124.847C664.643,125.081 660.549,125.931 660.129,123.583C659.666,120.994 663.183,119.853 663.576,119.726C671.748,117.075 672.047,117.773 679.53,113.548C683.885,111.09 690.339,102.296 695.247,97.257C697.245,95.206 697.011,95.018 698.94,92.911C703.814,87.591 705.426,85.559 705.956,84.891C706.447,84.272 706.621,84.436 712.553,77.545C714.65,75.11 714.703,75.177 716.806,72.758C720.602,68.389 720.702,68.481 721.014,68.086C723.448,65.008 723.639,65.203 726.182,62.231C729.174,58.732 729.198,58.769 729.452,58.461C731.493,55.984 731.525,56.037 733.692,53.672C735.863,51.303 735.791,51.271 737.907,48.861C744.565,41.278 744.845,41.452 749.824,32.672C751.706,29.354 753.77,29.94 755.524,29.863C757.016,29.798 760.274,29.275 760.451,29.241C768.997,27.581 773.856,21.497 776.484,23.52C778.044,24.72 777.238,31.895 776.882,33.589C775.549,39.929 775.593,39.937 775.428,40.475C774.676,42.921 775.14,43.001 774.458,45.488C773.752,48.067 773.873,49.04 773.541,50.509C772.222,56.358 772.45,56.396 771.745,59.562C770.98,62.996 771.192,63.022 770.264,66.436C769.717,68.449 770.071,68.503 769.595,70.522C769.01,73.005 769.12,73.006 768.559,75.513C768.452,75.988 767.931,78.318 767.312,81.466C765.746,89.43 765.813,89.441 765.266,91.436C764.715,93.443 765.066,93.498 764.593,95.521C764.123,97.53 764.095,97.502 763.762,99.544C762.692,106.097 758.852,114.004 767.735,118.031C769.174,118.684 773.181,119.985 773.589,120.06C774.663,120.256 780.425,118.929 784.355,117.182C785.062,116.868 788.154,115.494 790.051,109.377C790.892,106.669 800.504,75.679 800.563,75.526C801.168,73.963 801.918,71.607 802.216,70.422C802.839,67.949 804.782,62.565 805.05,61.413C805.88,57.835 806.279,57.969 807.228,54.419C808.13,51.045 809.193,48.583 811.517,40.505C813.572,33.364 810.429,32.706 804.414,30.752C800.166,29.372 801.241,26.927 802.412,26.36C803.445,25.86 805.287,25.703 806.507,25.587C808.41,25.406 817.921,25.832 821.522,26.347C830.064,27.568 833.318,26.109 837.531,25.886C843.345,25.577 843.304,25.192 846.492,25.145C854.46,25.029 864.101,25.361 871.342,30.722C878.712,36.178 880.184,45.212 879.512,49.502C879.108,52.078 878.918,56.283 874.688,61.641C871.081,66.21 867.74,68.077 867.384,68.326C860.86,72.9 854.825,73.895 853.535,74.556C851.289,75.707 854.103,80.027 855.122,82.637C855.241,82.941 855.956,84.774 856.798,86.352C858.9,90.292 859.017,91.196 859.722,92.371C863.196,98.156 865.504,105.71 870.63,111.384C876.641,118.036 881.504,116.563 884.527,117.405C884.92,117.514 887.238,118.959 890.681,116.829C895.009,114.151 894.795,112.028 900.392,94.466C904.457,81.712 904.235,81.644 904.636,80.552C906.444,75.64 906.171,75.563 907.779,70.589C909.568,65.055 909.457,65.023 909.628,64.548C911.365,59.733 912.001,56.875 912.138,56.389C912.441,55.307 913.628,52.521 914.121,50.421C914.974,46.792 916.236,44.879 917.442,38.489C918.511,32.826 912.187,31.75 911.494,31.515C910.794,31.278 907.082,30.437 908.36,27.426C909.167,25.525 913.061,25.517 913.5,25.516C915.18,25.512 915.153,25.966 934.5,25.966Z"/>
        <path d="M524.5,125.034C522.537,124.988 502.014,124.613 492.496,125.003C489.847,125.112 478.629,125.177 478.487,125.181C474.284,125.324 471.212,124.971 468.5,124.965C424.304,124.869 422.104,124.614 407.49,125.187C404.127,125.318 401.853,124.923 400.465,125.021C399.832,125.066 396.038,125.333 392.535,125.146C384.685,124.728 384.689,124.993 374.491,124.922C328.413,124.602 324.882,125.475 322.376,124.971C319.342,124.36 319.339,125.114 316.497,125.032C309.488,124.832 269.58,124.832 265.5,124.832C241.354,124.832 239.846,126.061 239.691,123.48C239.444,119.389 248.805,119.33 252.55,115.549C255.581,112.488 256.544,106.168 265.336,78.451C265.742,77.173 269.436,65.526 270.293,62.441C271.683,57.438 276.385,43.578 277.452,38.49C279.252,29.901 266.254,32.304 268.657,27.588C269.952,25.046 275.49,25.471 286.514,26.009C292.883,26.32 315.947,26.162 316.466,26.12C319.49,25.877 319.477,25.975 322.501,25.966C333.739,25.93 333.621,24.732 338.489,24.358C344.898,23.864 341.693,32.523 340.904,35.601C339.232,42.12 339.244,42.116 338.793,46.536C338.757,46.887 338.43,50.083 336.459,50.278C333.184,50.601 333.277,43.439 332.724,41.43C330.803,34.451 328.88,32.954 326.576,32.253C324.457,31.608 311.185,31.945 310.447,32.036C309.855,32.11 306.569,32.517 304.45,36.471C302.824,39.506 302.413,40.476 300.936,45.615C297.234,58.5 297.185,58.472 296.888,59.598C295.167,66.108 292.778,70.539 297.468,70.893C298.099,70.941 309.278,70.938 310.523,70.89C318.007,70.598 321.41,61.815 323.772,59.841C324.272,59.423 328.943,57.409 326.907,62.662C326.48,63.764 322.362,74.39 321.903,76.572C321.6,78.011 321.575,77.988 321.159,79.398C319.732,84.224 319.272,91.007 316.463,91.205C312.968,91.452 314.383,85.592 313.663,82.462C312.712,78.325 311.063,77.445 306.5,77.408C292.656,77.296 291.617,77.319 290.17,81.382C289.968,81.952 288.83,85.146 287.955,88.606C286.169,95.674 285.809,95.559 283.968,102.617C282.49,108.284 278.657,116.303 287.487,118.559C289.211,118.999 302.127,119.222 305.485,118.437C316.453,115.873 319.436,109.116 322.211,105.298C323.436,103.614 325.2,100.857 325.451,100.465C327.575,97.147 329.48,98.739 329.746,99.361C331.264,102.913 326.828,112.945 326.589,113.538C324.914,117.696 324.282,118.088 324.242,118.477C324.227,118.622 324.079,120.065 325.511,119.78C326.256,119.631 326.903,119.171 327.612,118.899C334.635,116.202 335.476,116.013 339.016,104.357C342.654,92.375 342.752,92.428 343.044,91.381C345.858,81.286 347.338,77.971 348.205,74.422C348.53,73.093 358.705,41.317 359.107,38.441C359.94,32.48 353.859,32.094 351.72,31.04C351.712,31.036 349.143,29.929 350.27,27.38C351.456,24.701 357.463,25.66 359.495,25.716C382.175,26.347 393.798,25.634 398.49,25.737C398.777,25.743 401.742,25.808 400.669,28.576C400.075,30.11 396.806,31.158 396.422,31.281C389.055,33.642 386.453,34.036 383.543,43.514C375.337,70.234 375.273,70.194 374.608,72.53C372.82,78.812 365.767,100.5 364.435,106.486C361.848,118.11 366.207,118.871 374.502,118.572C393.748,117.878 399.943,107.603 402.306,104.364C405.522,99.955 406.102,97.474 407.646,95.61C410.449,92.225 411.732,95.459 411.892,96.424C412.492,100.054 408.225,110.906 407.115,113.326C404.716,118.557 404.288,118.617 404.778,119.314C405.354,120.134 405.551,119.767 406.48,119.419C407.525,119.028 407.494,118.986 408.542,118.624C416.574,115.845 416.479,112.046 420.128,100.383C420.603,98.866 426.053,81.447 426.06,81.415C426.324,80.276 426.336,80.225 430.33,67.438C432.588,60.213 432.566,60.211 432.765,59.584C435.148,52.082 434.991,52.044 435.215,51.398C437.088,46.006 437.105,46.026 438.599,40.528C440.824,32.341 434.758,32.535 431.365,30.741C429.474,29.742 429.831,27.551 430.668,26.661C432.556,24.652 433.113,25.964 454.5,25.966C473.156,25.967 477.874,25.57 479.447,25.783C481.668,26.084 480.709,28.333 480.615,28.555C479.641,30.839 475.422,31.591 473.406,32.217C465.229,34.756 464.492,40.519 462.905,45.619C460.912,52.025 461.014,52.05 460.836,52.605C457.329,63.603 457.33,63.581 453.932,74.62C451.749,81.714 451.608,82.467 451.586,82.532C450.361,86.134 450.294,86.091 450.194,86.404C449.959,87.133 449.95,87.961 449.409,89.466C449.267,89.86 449.099,90.244 448.971,90.642C448.717,91.436 446.871,97.182 445.949,100.614C444.455,106.178 441.783,113.751 445.697,117.264C448.467,119.751 459.689,118.169 461.571,117.818C480.416,114.306 484.442,99.67 487.665,95.628C490.313,92.306 492.564,94.972 491.612,99.523C489.905,107.679 488.95,108.64 486.888,113.658C485.01,118.231 483.968,118.525 484.676,119.357C485.49,120.312 485.685,119.503 489.653,117.889C495.609,115.466 495.801,111.597 498.736,102.569C499.009,101.73 513.966,53.605 514.013,53.404C514.838,49.833 515.354,50.003 516.208,46.425C516.704,44.344 518.874,38.92 518.561,36.493C517.851,30.983 509.793,32.166 509.87,28.516C509.957,24.42 517.623,25.666 520.487,25.78C531.684,26.229 531.691,27.528 540.483,26.363C547.255,25.465 563.57,25.561 566.556,26.283C570.991,27.354 574.67,28.043 578.416,30.625C589.011,37.931 585.78,49.337 584.208,52.357C580.741,59.013 575.703,62.035 575.353,62.291C567.775,67.85 558.315,69.368 557.948,69.899C557.914,69.949 557.885,71.129 557.918,71.192C558.391,72.092 563.327,72.354 570.105,77.966C570.815,78.554 575.386,82.339 576.624,87.469C578.62,95.743 577.314,98.605 576.851,101.563C575.893,107.68 570.125,114.788 564.543,117.58C558.882,120.412 558.968,120.675 551.536,122.628C545.476,124.221 544.232,123.795 541.46,124.265C538.669,124.74 538.677,125.029 524.5,125.034Z"/>
        <path d="M93.5,17.966C99.935,17.975 105.88,17.505 113.879,24.034C124.992,33.105 123.623,45.59 123.618,53.5C123.589,100.302 123.877,100.382 122.705,104.556C119.914,114.496 114.504,118.199 110.67,120.771C107.34,123.006 103.272,123.811 102.591,123.945C95.642,125.32 95.602,124.831 88.501,124.834C41.631,124.854 41.621,124.763 40.492,124.549C39.338,124.331 27.894,123.271 20.847,112.283C19.229,109.76 17.277,104.595 17.063,102.555C16.597,98.095 16.851,98.094 16.878,46.501C16.881,42.71 16.2,37.33 21.385,29.42C22.841,27.199 30.103,18.227 41.484,18.056C47.844,17.961 88.433,18.14 93.5,17.966Z"/>
        <path d="M684.031,66.487C683.974,67.126 683.874,68.247 683.059,74.44C683.054,74.481 681.241,82.442 678.702,87.602C676.646,91.779 673.057,100.067 663.296,109.28C663.069,109.494 656.606,116.31 645.441,121.381C641.042,123.379 640.155,123.665 632.551,125.677C631.985,125.827 623.191,126.908 620.487,126.813C619.929,126.793 618.844,126.755 613.547,126.072C612.351,125.918 604.735,124.176 598.671,119.277C587.324,110.109 585.571,97.696 585.266,95.536C583.286,81.518 587.471,69.536 588.218,67.4C590.379,61.211 594.785,53.908 595.727,52.666C598.509,48.997 598.453,48.971 601.417,45.432C607.571,38.083 621.496,27.602 637.428,25.054C641.989,24.325 658.328,20.934 672.416,33.595C672.963,34.087 677.679,39.103 679.744,43.382C684.379,52.987 684.156,60.787 684.031,66.487Z"/>
        <path d="M196.5,125.034C187.017,124.707 172.583,124.85 170.503,124.871C153.784,125.037 152.234,125.845 152.182,123.512C152.099,119.709 160.695,119.572 164.788,115.821C165.826,114.87 166.841,115.252 171.46,99.488C173.965,90.939 174.258,91.054 179.237,74.41C181.325,67.429 181.543,67.513 183.65,60.545C187.022,49.395 187.059,49.424 187.339,48.452C188.255,45.276 190.044,40.627 190.135,38.476C190.411,31.924 186.876,33.03 182.55,30.43C180.722,29.331 181.554,26.866 183.667,25.945C186.427,24.743 201.54,26.624 205.475,26.828C210.068,27.066 211.813,25.754 226.5,25.727C237.952,25.705 237.887,26.371 240.438,26.839C241.17,26.973 245.832,27.829 249.216,29.954C252.51,32.024 253.286,33.099 253.547,33.461C254.658,34.999 255.048,35.192 256.209,37.629C260.039,45.664 256.18,53.278 252.958,56.92C252.014,57.986 246.735,63.953 238.365,67.116C231.864,69.573 229.566,69.083 229.546,70.502C229.522,72.245 230.905,70.966 237.343,74.775C240.09,76.4 239.932,76.602 242.515,78.482C244.086,79.624 246.482,83.165 246.621,83.432C249.546,89.039 249.127,92.237 249.136,92.517C249.317,97.98 249.248,100.774 247.401,105.458C240.615,122.672 213.498,124.249 213.457,124.256C211.835,124.542 211.864,125.029 196.5,125.034Z"/>
        <path d="M660.97,55.513C660.907,58.332 661.197,60.061 659.234,68.436C658.13,73.145 654.225,85.056 651.787,89.641C651.101,90.932 650.449,92.808 647.229,98.353C644.54,102.984 642.885,105.782 638.216,111.263C636.466,113.317 630.794,117.999 628.304,119.051C624.129,120.815 618.284,122.708 613.199,117.817C608.198,113.008 608.014,105.076 607.411,99.508C607.072,96.383 607.855,92.538 607.906,91.529C607.944,90.795 608.12,87.334 609.361,82.464C612.923,68.485 616.903,60.454 617.8,58.642C624.833,44.449 628.822,40.349 634.258,35.238C641.024,28.877 654.83,24.473 659.565,40.48C661.547,47.182 661.053,54.308 660.97,55.513Z" style="fill:rgb(254,254,254);"/>
        <path d="M974.038,60.508C974.236,70.421 973.403,70.524 973.155,73.466C972.964,75.728 971.335,82.141 970.126,85.356C961.261,108.931 946.749,116.862 941.519,118.552C939.88,119.082 937.337,120.171 932.475,119.855C927.652,119.541 920.409,116.005 922.448,108.485C923.115,106.025 923.009,106.01 923.784,103.597C923.844,103.412 926.428,94.089 927.425,91.469C927.503,91.264 929.278,85.041 929.437,84.481C930.096,82.17 931.595,77.508 931.81,76.577C932.048,75.546 934.042,69.021 934.193,68.429C934.985,65.321 935.841,63.425 936.855,59.59C937.198,58.295 937.27,58.33 941.678,43.549C942.27,41.565 942.134,41.549 942.82,39.613C945.062,33.289 946.177,31.189 956.458,31.894C964.494,32.445 968.519,39.019 968.744,39.342C970.876,42.4 971.733,45.811 971.884,46.411C972.649,49.459 972.896,49.4 973.202,52.535C973.522,55.803 973.79,55.761 974.038,60.508Z" style="fill:rgb(254,254,254);"/>
        <path d="M53.5,87.966C50.301,87.966 46.753,88.452 45.659,86.41C43.848,83.031 50.268,80.931 50.767,76.523C50.981,74.633 50.421,66.068 51.317,63.432C52.353,60.38 54.04,55.684 60.541,51.557C62.863,50.082 62.058,45.398 68.538,43.658C70.941,43.013 75.641,43.943 77.635,48.435C79.208,51.98 79.906,51.448 83.508,54.492C84.354,55.207 87.534,58.774 88.575,62.478C91.11,71.502 88.451,76.359 90.627,79.4C91.759,80.983 96.007,83.366 94.538,86.521C93.219,89.351 83.134,86.983 81.495,88.495C80.286,89.61 81.402,95.51 73.48,98.438C71.024,99.345 66.046,99.181 62.79,96.192C58.291,92.061 60.158,88.582 57.591,88.075C57.506,88.059 53.827,87.973 53.5,87.966Z" style="fill:rgb(254,254,254);"/>
        <path d="M551.941,89.488C551.939,89.566 552.269,92.639 550.707,97.564C545.343,114.475 530.701,122.037 525.591,119.318C519.059,115.843 522.44,109.859 526.212,97.415C531.479,80.042 531.581,79.827 532.266,78.383C534.806,73.034 546.673,73.589 550.177,81.641C552.05,85.946 551.863,87.491 551.941,89.488Z" style="fill:rgb(254,254,254);"/>
        <path d="M209.534,74.969C210.208,74.983 215.076,74.545 218.6,77.369C221.251,79.494 222.231,81.444 223.589,86.475C225.12,92.15 221.424,104.009 214.542,111.539C209.193,117.391 203.609,119.175 202.508,119.527C198.062,120.947 194.066,118.065 193.87,114.476C193.619,109.866 194.09,109.904 195.464,105.487C196.035,103.651 202.3,83.502 202.628,82.54C204.436,77.246 204.094,76.212 209.534,74.969Z" style="fill:rgb(254,254,254);"/>
        <path d="M828.082,70.431C829.345,65.365 830.787,61.539 833.564,52.523C839.819,32.219 840.725,30.968 844.515,30.651C848.011,30.358 850.166,32.288 850.492,32.51C852.571,33.924 854.803,38.022 855.156,40.555C855.598,43.738 855.951,44.295 855.616,47.511C855.031,53.11 855.255,53.15 853.709,58.574C853.194,60.379 852.101,62.401 851.929,62.719C848.319,69.395 845.586,70.552 843.709,71.823C839.004,75.012 828.153,76.949 827.949,71.501C827.936,71.142 828.095,70.79 828.082,70.431Z" style="fill:rgb(254,254,254);"/>
        <path d="M554.456,29.958C556.454,30.481 560.457,30.869 563.474,38.51C564.428,40.927 564.1,47.148 563.751,48.562C563.019,51.535 561.847,56.577 555.614,63.6C554.398,64.971 553.005,67.193 545.434,69.235C543.684,69.706 535.272,71.432 536.253,65.459C536.454,64.23 540.739,50.742 541.695,47.564C546.32,32.191 546.252,29.827 554.456,29.958Z" style="fill:rgb(254,254,254);"/>
        <path d="M235.93,43.517C235.539,49.805 235.034,52.872 230.624,59.585C230.379,59.956 226.912,64.42 225.496,65.496C224.79,66.033 223.992,66.999 219.526,68.569C214.14,70.462 208.855,70.201 208.081,67.643C207.595,66.041 207.855,65.973 211.894,52.621C217.315,34.701 217.321,34.692 218.203,33.328C218.355,33.092 219.766,29.799 225.488,29.917C230.301,30.016 232.885,34.163 232.902,34.184C235.627,37.727 235.838,40.4 235.93,43.517Z" style="fill:rgb(254,254,254);"/>
        <path d="M55.966,72.5C56.007,70.901 55.828,64.13 59.083,60.167C63.751,54.484 66.499,56.583 67.162,52.448C67.781,48.588 70.719,48.634 72,50.019C73.434,51.57 72.533,54.166 75.426,55.636C86.016,61.015 83.711,69.223 84.063,76.532C84.227,79.955 85.436,79.947 84.719,81.648C84.366,82.486 83.237,82.217 81.5,82.21C58.529,82.122 58.529,82.384 56.535,82.279C55.23,82.21 55.294,81.777 55.506,80.501C55.56,80.175 55.738,79.877 55.793,79.551C56.18,77.254 55.965,77.257 55.966,72.5Z"/>
        <path d="M746.041,66.448C743.137,79.572 743.218,79.596 742.636,80.605C741.819,82.021 740.458,81.814 725.5,81.812C723.772,81.812 719.84,82.151 719.704,80.471C719.613,79.352 720.792,78.585 721.543,77.536C721.812,77.16 730.606,66.398 735.175,61.21C736.137,60.119 735.981,60.003 737.883,57.829C740.002,55.407 739.997,55.429 741.941,52.856C741.99,52.792 744.868,49.471 745.122,49.177C747.688,46.215 748.714,43.918 749.83,45.003C750.423,45.578 750.35,45.656 750.225,46.469C749.854,48.882 746.39,63.837 746.041,66.448Z" style="fill:rgb(254,254,254);"/>
        <path d="M70.5,87.966C74.119,87.953 74.115,87.857 74.405,87.974C77.256,89.116 72.742,95.351 67.387,92.698C66.079,92.049 64.872,89.826 64.874,89.455C64.875,89.288 64.882,88.19 66.407,88.044C66.733,88.013 66.73,88.095 70.5,87.966Z"/>
    </g>
</svg>
