<?xml version="1.0" encoding="UTF-8" standalone="no"?>
<!DOCTYPE svg PUBLIC "-//W3C//DTD SVG 1.1//EN" "http://www.w3.org/Graphics/SVG/1.1/DTD/svg11.dtd">
<svg width="100%" height="100%" viewBox="0 0 2500 500" version="1.1" xmlns="http://www.w3.org/2000/svg" xmlns:xlink="http://www.w3.org/1999/xlink" xml:space="preserve" xmlns:serif="http://www.serif.com/" style="fill-rule:evenodd;clip-rule:evenodd;stroke-linejoin:round;stroke-miterlimit:2;">
    <g transform="matrix(2.030273,0,0,2.030273,209,0)">
        <path d="M588.177,90.504C588.112,95.284 588.608,119.511 568.066,141.049C566.993,142.175 560.947,147.368 558.212,149.052C538.999,160.883 520.302,159.55 509.5,159.551C467.382,159.555 467.375,159.704 466.489,159.562C463.933,159.153 465.626,154.751 467.344,154.118C469.057,153.487 477.704,154.636 481.588,143.535C481.954,142.491 496.121,90.453 496.93,87.62C498.489,82.161 501.981,68.151 501.921,66.481C501.731,61.127 495.621,60.471 495.512,60.447C493.031,59.898 492.941,60.08 492.421,59.593C492.301,59.48 491.63,58.852 491.951,57.591C492.777,54.345 493.168,54.053 496.503,53.93C496.826,53.918 544.923,53.932 545.477,53.947C546.862,53.984 556.956,54.723 563.398,56.822C583.934,63.512 586.613,78.961 587.166,81.569C587.967,85.344 588.092,88.384 588.177,90.504Z" style="fill:rgb(3,3,3);"/>
        <path d="M65.214,87.33C66.373,85.427 66.337,85.423 67.594,83.564C74.876,72.795 85.48,63.99 90.768,60.96C104.135,53.299 113.855,53.278 116.465,53.089C118.344,52.953 130.617,52.065 139.653,57.205C143.592,59.446 160.914,68.726 159.521,98.501C159.416,100.748 158.445,107.695 158.263,108.448C156.201,116.983 155.03,120.63 151.162,128.331C146.74,137.136 138.594,145.023 137.29,146.285C119.03,163.964 99.169,164.59 96.503,164.66C90.14,164.827 75.101,165.39 63.92,154.08C54.676,144.729 54.068,130.669 53.974,128.473C53.66,121.234 55.27,112.736 55.801,110.574C58.937,97.8 64.726,88.211 65.214,87.33Z" style="fill:rgb(3,3,3);"/>
        <path d="M811.571,140.916C805.099,142.042 805.066,141.844 798.542,141.138C790.654,140.284 788.603,146.313 794.474,147.616C794.872,147.704 794.883,147.568 799.538,148.246C800.738,148.421 807.758,148.218 817.462,148.893C820.752,149.121 827.121,150.564 830.317,152.772C833.6,155.042 837.13,160.21 835.72,166.549C833.781,175.268 825.804,179.421 823.643,180.747C820.002,182.982 812.263,185.607 804.48,186.315C800.49,186.679 800.523,186.959 796.501,186.967C792.472,186.976 792.474,187.157 788.489,186.588C785.249,186.125 767.828,185.004 768.321,172.491C768.595,165.535 775.3,162.736 775.551,161.519C776.018,159.259 771.726,158.39 772.198,151.475C772.509,146.92 776.025,143.515 776.825,142.887C782.631,138.333 787.567,138.333 786.773,135.393C786.594,134.732 783.987,132.569 782.884,127.424C782.411,125.218 781.788,123.645 783.279,116.449C783.661,114.605 790.095,89.499 820.507,92.422C824.054,92.763 824.849,93.668 826.577,90.545C827.567,88.754 831.305,83.07 833.791,80.829C843.499,72.075 854.458,78.202 851.463,86.485C850.651,88.732 845.927,94.916 839.387,89.645C836.541,87.352 833.954,87.565 831.038,91.135C827.932,94.937 830.25,95.445 832.223,96.877C842.623,104.42 841.455,118.958 833.454,128.462C824.281,139.361 812.431,140.769 811.571,140.916Z" style="fill:rgb(4,3,3);"/>
        <path d="M114.432,62.047C115.233,61.957 120.5,61.36 124.494,62.52C138.715,66.651 140.783,79.006 139.847,92.532C139.601,96.083 139.339,96.039 138.874,99.567C138.497,102.427 135.493,115.108 134.295,118.428C130.018,130.278 127.535,134.482 123.841,139.737C115.1,152.17 105.728,155.896 97.493,156.369C83.14,157.192 78.55,150.146 76.358,144.556C73.783,137.992 74.133,132.04 74.211,129.492C74.438,122.057 77.775,109.16 78.224,107.422C78.765,105.331 82.157,92.224 88.202,82.328C96.43,68.859 104.534,63.715 114.432,62.047Z" style="fill:rgb(253,253,253);"/>
        <path d="M540.503,62.941C544.256,63.059 546.998,62.889 551.419,63.861C565.31,66.916 566.978,78.315 567.407,85.507C568.103,97.169 562.418,116.326 557.089,127.296C549.161,143.617 535.653,147.778 534.4,148.197C524.292,151.574 511.012,150.301 509.561,150.077C499.761,148.566 502.398,141.924 504.128,135.408C508.479,119.02 508.298,118.975 508.715,117.561C510.97,109.92 520.552,73.121 521.565,70.522C524.865,62.059 530.148,62.942 540.503,62.941Z" style="fill:rgb(252,252,252);"/>
        <path d="M269.496,92.724C301.622,94.394 300.688,126.749 289.262,143.344C287.324,146.159 281.226,156.255 266.406,161.208C257.406,164.216 242.538,164.546 233.651,158.278C232.459,157.436 229.39,155.57 226.717,150.393C219.561,136.535 226.454,115.172 237.751,104.773C248.229,95.128 257.524,93.912 263.561,92.896C265.13,92.631 268.18,92.722 269.496,92.724Z" style="fill:rgb(4,3,3);"/>
        <path d="M660.024,111.585C660.76,116.629 660.988,118.026 660.22,121.427C659.614,124.108 658.242,123.562 650.501,123.626C636.231,123.744 614.002,123.354 612.629,123.84C610.122,124.73 608.826,136.378 610.278,141.554C614.33,156.01 629.134,153.812 635.729,149.901C645.989,143.814 645.43,137.894 649.395,138.905C651.014,139.318 653.215,140.283 653.538,140.424C656.356,141.659 653.785,144.336 650.846,147.789C641.928,158.269 630.944,161.643 618.505,161.261C618.301,161.255 612.372,160.85 607.652,159.089C600.077,156.263 590.882,148.835 590.747,135.496C590.732,134.062 590.173,130.098 592.939,121.632C594.268,117.569 602.486,97.027 627.544,92.839C628.968,92.601 644.554,90.929 653.181,98.852C658.645,103.87 659.671,110.252 660.024,111.585Z" style="fill:rgb(3,3,3);"/>
        <path d="M398.96,136.528C398.898,155.628 417.401,158.009 428.744,148.811C437.351,141.833 436.117,138.816 439.39,139.853C439.744,139.965 443.185,141.509 443.413,141.646C445.802,143.083 444.062,145.354 439.852,149.836C436.046,153.888 428.88,160.748 414.476,162.267C408.409,162.906 385.845,162.626 381.098,142.6C377.702,128.276 385.262,111.698 396.139,103.062C396.576,102.715 407.522,92.327 425.511,93.28C439.328,94.012 450.4,103.149 450.117,119.495C450.028,124.638 448.209,124.367 446.497,124.382C433.345,124.497 403.806,124.24 402.517,124.57C401.564,124.814 400.878,124.752 399.266,133.46C399.221,133.703 399.179,133.933 398.96,136.528Z" style="fill:rgb(3,3,3);"/>
        <path d="M328.939,120.616C328.373,122.642 321.468,148.621 321.384,150.494C321.16,155.418 327.543,154.925 328.367,155.65C329.362,156.526 328.631,160.181 326.518,160.598C325.646,160.771 310.236,160.546 296.495,160.693C293.889,160.721 293.391,159.971 294.295,157.434C295.749,153.355 299.741,156.66 303.375,152.391C304.638,150.907 304.419,150.744 308.737,134.567C314.614,112.548 314.829,112.465 314.327,110.558C313.524,107.503 307.896,109.18 307.238,107.651C306.656,106.3 307.579,103.948 309.696,102.908C310.941,102.297 316.077,100.658 326.749,94.961C329.319,93.59 332.09,91.948 334.525,92.399C337.418,92.936 334.528,97.63 334.846,98.413C334.918,98.59 335.206,98.562 335.347,98.691C335.457,98.791 335.431,99.027 335.571,99.075C336.901,99.526 336.412,97.513 347.364,94.065C360.244,90.01 377.111,93.775 372.634,114.529C371.344,120.513 368.863,128.337 367.379,134.471C365.861,140.745 362.743,149.442 363.912,152.308C364.66,154.142 367.082,154.739 367.417,154.822C369.681,155.38 369.765,155.194 370.315,155.712C371.222,156.567 370.796,160.125 368.516,160.583C367.774,160.732 355.938,160.648 348.499,160.697C345.887,160.714 344.685,161.019 345.127,158.456C345.178,158.166 348.329,146.236 349.673,140.543C353.223,125.511 357.931,113.091 356.87,108.415C356.064,104.859 351.389,100.534 340.533,104.582C339.861,104.833 333.623,107.658 331.791,110.662C331.217,111.604 331.043,113.09 328.939,120.616Z" style="fill:rgb(4,3,3);"/>
        <path d="M858.941,111.525C858.879,111.16 858.958,110.781 858.896,110.416C858.872,110.279 858.72,109.39 858.158,108.843C856.076,106.816 850.661,108.925 851.575,105.514C852.334,102.682 854.364,102.216 854.367,102.215C855.179,101.842 862.154,98.64 864.549,97.608C870.564,95.016 873.678,92.499 876.462,92.148C881.089,91.566 879.973,94.546 879.971,94.556C879.457,96.907 878.69,97.174 879.804,98.02C881.021,98.946 881.06,98.065 882.403,97.303C897.126,88.952 917.939,90.309 918.111,106.506C918.159,111.103 917.311,113.949 908.963,144.628C906.659,153.092 909.504,153.135 913.623,154.064C915.805,154.557 915.609,155.91 914.939,157.686C913.993,160.195 913.023,159.385 893.5,159.48C891.329,159.49 888.549,160.285 889.795,155.574C891.506,149.102 891.478,149.1 891.644,148.542C893.689,141.673 898.071,124.266 899.163,120.405C899.953,117.611 899.972,117.622 900.036,117.378C901.729,110.881 903.564,104.024 894.526,102.375C890.671,101.672 885.543,103.22 882.263,105.067C876.589,108.263 876.575,108.603 875.527,112.507C872.776,122.756 871.069,130.091 870.423,132.48C865.951,149.03 865.947,149.106 866.265,150.555C867.4,155.716 874.95,152.057 873.876,156.58C873.137,159.691 871.409,159.473 869.5,159.478C857.999,159.506 858.015,159.454 846.5,159.456C840.745,159.457 836.701,160.513 839.333,155.405C841.116,151.946 847.566,156.755 850.112,146.405C855.151,125.924 858.008,117.379 858.941,111.525Z" style="fill:rgb(4,4,3);"/>
        <path d="M924.076,145.536C923.556,139.831 922.928,138.803 923.477,137.487C923.819,136.668 926.081,135.845 927.524,136.003C930.625,136.342 929.453,139.019 934.899,145.153C935.192,145.484 938.393,149.346 944.433,151.673C962.03,158.451 973.093,147.267 966.425,139.566C962.901,135.495 945.439,131.677 938.545,126.44C923.327,114.88 936.822,85.91 969.515,93.44C975.395,94.795 976.508,97.826 979.709,94.723C982.429,92.086 984.091,94.176 984.492,95.502C984.881,96.784 986.28,109.532 986.318,110.503C986.427,113.37 983.802,113.13 983.496,113.102C981.375,112.908 980.677,110.857 979.18,108.727C969.745,95.304 950.865,97.342 948.716,105.564C946.836,112.762 956.508,115.038 961.414,116.751C973.929,121.12 973.93,121.368 978.499,124.502C982.504,127.248 985.648,134.422 984.761,140.538C984.249,144.063 982.216,156.045 964.56,159.799C946.47,163.646 937.51,156.244 934.477,155.587C930.931,154.82 931.644,158.365 928.526,158.756C925.201,159.172 925.255,156.548 925.157,155.543C924.672,150.534 924.617,150.555 924.076,145.536Z" style="fill:rgb(4,3,3);"/>
        <path d="M662.919,140.442C662.797,138.196 662.292,136.851 665.422,136.153C669.969,135.139 668.565,138.311 673.694,144.338C680.147,151.922 690.967,155.785 700.569,152.706C706.215,150.896 708.347,146.396 707.906,143.447C707.819,142.86 707.285,139.291 703.529,137.444C693.514,132.52 680.438,130.373 674.618,123.405C672.433,120.789 670.972,116.13 671.336,112.485C672.614,99.682 685.651,91.379 701.511,92.305C708.824,92.732 713.09,95.028 714.448,95.62C717.991,97.165 718.075,95.032 719.688,93.746C720.388,93.19 722.725,92.747 723.436,94.529C724.006,95.96 725.585,110.882 725.437,111.481C725.174,112.552 723.172,113.193 722.489,113.129C720.019,112.896 720.27,110.644 716.553,106.454C706.648,95.286 691.282,98.179 688.537,104.517C685.947,110.498 691.244,113.422 698.659,116.037C715.293,121.903 721.291,123.979 723.719,135.457C723.888,136.253 724.652,139.866 722.709,145.576C720.289,152.693 712.343,157.763 706.455,159.339C689.849,163.781 678.772,157.858 675.569,156.354C672.125,154.736 671.534,154.854 670.036,157.199C669.867,157.462 668.798,159.135 666.461,158.783C663.917,158.399 664.966,156.696 662.919,140.442Z" style="fill:rgb(4,3,3);"/>
        <path d="M197.728,128.727C189.771,136.786 178.595,148.23 176.935,149.93C173.888,153.05 173.846,153.181 173.728,153.549C173.323,154.814 175.244,154.88 175.417,154.886C177.25,154.949 182.864,154.837 183.511,154.824C200.06,154.494 207.825,139.995 210.478,139.416C211.208,139.257 215.673,139.853 213.854,142.681C213.668,142.969 211.609,146.378 210.273,148.351C202.173,160.307 202.574,161.05 200.481,161.36C199.345,161.527 198.582,161.364 153.501,161.436C152.196,161.438 152.017,161.746 151.181,160.744C150.726,160.199 150.569,156.218 153.354,153.357C159.524,147.021 159.453,146.972 165.682,140.682C173.514,132.775 202.022,103.8 202.236,103.368C203.493,100.836 199.156,101.553 198.5,101.562C194.582,101.621 185.677,100.725 177.591,107.609C170.414,113.72 170.709,114.619 168.509,114.443C165.549,114.204 167.095,111.594 167.231,111.365C176.01,96.542 175.818,96.352 176.716,95.825C177.668,95.267 177.749,95.345 199.499,95.316C221.608,95.288 221.615,95.133 223.514,95.424C224.638,95.596 226.205,96.157 224.659,100.554C223.924,102.643 221.756,104.328 219.556,106.555C212.28,113.945 205.004,121.336 197.728,128.727Z" style="fill:rgb(3,3,3);"/>
        <path d="M278.819,122.542C278.169,126.798 277.174,133.143 270.077,145.249C265.847,152.466 257.07,156.438 250.578,155.099C248.194,154.608 241.671,153.72 240.433,144.509C239.499,137.556 243.791,113.571 255.684,104.754C263.828,98.715 280.28,98.035 279.425,116.498C279.402,116.983 279.385,117.367 278.819,122.542Z" style="fill:rgb(251,251,251);"/>
        <path d="M728.152,156.405C728.747,155.065 728.48,154.842 729.403,154.36C730.843,153.607 730.915,153.91 732.532,153.717C738.996,152.948 739.813,146.334 740.056,145.383C742.871,134.351 742.99,134.389 743.23,133.429C748.264,113.25 748.577,113.324 748.735,111.524C749.291,105.159 740.684,109.966 741.405,105.487C741.812,102.951 743.356,102.354 746.692,100.954C761.039,94.931 760.962,93.776 764.505,92.513C764.936,92.36 769.701,90.662 770.137,93.525C770.29,94.533 766.326,108.359 765.959,109.64C765.948,109.677 760.961,128.49 760.714,129.554C757.6,142.974 754.179,150.23 757.523,152.47C761.041,154.827 764.876,152.981 763.908,156.596C763.078,159.694 761.609,159.498 759.5,159.503C757.1,159.509 730.473,159.576 729.498,159.518C727.559,159.404 727.811,157.751 727.842,157.548C727.902,157.158 728.092,156.795 728.152,156.405Z" style="fill:rgb(4,4,3);"/>
        <path d="M806.497,134.948C805.578,134.869 804.182,135.042 802.269,133.937C802.013,133.789 800.268,132.781 799.47,131.523C797.851,128.971 796.007,125.455 799.349,114.449C804.305,98.129 816.953,96.065 822.083,102.804C827.071,109.357 821.538,128.643 811.567,133.629C808.564,135.13 807.439,134.869 806.497,134.948Z" style="fill:rgb(251,251,251);"/>
        <path d="M791.564,179.181C791.082,179.056 787.083,178.021 785.663,177.211C778.973,173.395 781.379,165.402 787.563,163.787C788.644,163.504 796.849,163.477 799.488,163.652C808.544,164.254 819.195,164.292 820.377,169.527C821.712,175.441 810.961,178.791 807.468,179.315C797.94,180.745 794.564,179.663 791.564,179.181Z" style="fill:rgb(250,250,250);"/>
        <path d="M643.039,106.637C643.304,107.905 644.04,110.112 643.247,113.427C642.701,115.715 641.892,115.514 631.5,115.489C616.582,115.454 616.427,115.642 615.951,115.075C615.086,114.045 617.068,111.428 617.148,111.293C626.107,96.262 639.226,97.847 642.569,105.468C642.737,105.853 642.87,106.253 643.039,106.637Z" style="fill:rgb(250,250,250);"/>
        <path d="M427.496,116.127C425.821,116.135 406.837,116.218 406.56,116.162C404.627,115.766 405.623,113.793 405.72,113.6C411.94,101.281 424.495,96.866 430.894,104.163C434.524,108.302 433.567,115.076 431.657,115.832C430.701,116.21 427.51,116.127 427.496,116.127Z" style="fill:rgb(249,248,249);"/>
        <path d="M1023.999,1.5L1023.999,245.999C1023.742,246.427 1022.757,245.571 1022.5,245.999C1022.614,244.248 1022.728,244.269 1022.728,242.5C1022.728,163.167 1022.728,83.833 1022.728,4.5C1022.727,2.503 1022.718,2.51 1022.726,2.49C1023.064,1.693 1023.665,2.287 1023.999,1.5Z" style="fill:rgb(254,254,254);fill-opacity:0.38;"/>
        <path d="M764.579,60.933C766.494,60.793 768.799,60.363 772.502,62.498C773.547,63.101 775.756,64.977 776.317,67.545C778.229,76.292 766.626,83.049 759.212,76.854C753.444,72.035 756.345,65.723 759.455,63.443C762.52,61.196 763.308,61.329 764.579,60.933Z" style="fill:rgb(4,4,4);"/>
        <path d="M1.5,0C1.41,0.482 1.181,0.932 1.091,1.414C1.025,1.765 1.035,1.761 1.034,234.5C1.034,235.3 1.034,244.5 1.034,244.5C1.103,245.019 1.431,245.48 1.5,245.999C1.146,245.646 0.354,246.352 0,245.999C-0.353,245.646 0,245 0,244.5L0,0C0.257,-0.429 1.243,0.429 1.5,0Z" style="fill:rgb(254,254,254);fill-opacity:0.25;"/>
    </g>
</svg>
