<?xml version="1.0" encoding="UTF-8" standalone="no"?>
<!DOCTYPE svg PUBLIC "-//W3C//DTD SVG 1.1//EN" "http://www.w3.org/Graphics/SVG/1.1/DTD/svg11.dtd">
<svg width="100%" height="100%" viewBox="0 0 2500 500" version="1.1" xmlns="http://www.w3.org/2000/svg" xmlns:xlink="http://www.w3.org/1999/xlink" xml:space="preserve" xmlns:serif="http://www.serif.com/" style="fill-rule:evenodd;clip-rule:evenodd;stroke-linejoin:round;stroke-miterlimit:2;">
    <g transform="matrix(1.958008,0,0,1.958008,251,0)">
        <path d="M1.5,0L1022.5,-0C1022.588,0.467 1022.801,0.905 1022.889,1.372C1022.965,1.781 1022.966,4.25 1022.966,4.5C1022.968,24.42 1022.988,253.333 1022.966,253.5C1022.897,254.019 1022.569,254.48 1022.5,254.999L1.5,254.999C1.431,254.48 1.103,254.019 1.034,253.5C1.004,253.275 1.033,24.42 1.035,4.5C1.035,2.52 1.035,2.522 1.035,2.493C1.056,0.951 1.473,0.146 1.5,0Z" style="fill:rgb(253,253,253);"/>
        <path d="M180.501,227.936C178.788,227.993 100.459,227.921 93.499,227.915C80.753,227.903 75.131,228.206 69.417,226.816C67.22,226.282 61.046,224.309 56.643,221.284C50.367,216.972 46.941,213.416 42.75,206.361C42.067,205.213 38.184,197.258 38.08,190.514C37.775,170.712 37.971,71.821 37.992,61.5C38.006,54.47 41.012,38.935 55.15,29.002C56.574,28.001 64.505,22.429 75.473,21.248C76.958,21.088 203.566,21.046 205.526,21.264C226.429,23.59 239.076,38.844 241.997,54.41C242.721,58.262 242.806,58.247 243.024,64.498C243.055,65.378 243.021,65.373 243.01,75.5C242.898,178.551 243.051,178.537 243.005,187.496C242.951,197.782 238.482,205.565 238.108,206.288C235.744,210.86 226.509,224.374 209.445,227.167C202.533,228.298 202.505,227.767 195.5,227.939C194.3,227.968 194.31,227.928 180.501,227.936Z"/>
        <path d="M963.788,152.614C964.212,164.852 963.987,169.612 963.952,176.507C963.942,178.655 964.029,180.034 961.486,180.069C949.364,180.237 949.226,180.246 948.485,179.514C947.793,178.831 948.209,178.649 947.963,166.503C947.957,166.224 948.101,139.786 947.954,132.504C947.919,130.766 947.966,120.543 947.971,119.503C947.989,115.492 948.031,115.512 947.95,111.503C947.82,105.057 948.026,104.839 948.416,104.427C948.959,103.853 950.334,103.842 950.508,103.84C962.665,103.74 962.809,103.721 963.536,104.469C964.422,105.381 963.338,110.9 963.966,111.11C964.174,111.18 964.236,110.673 964.456,110.668C964.716,110.662 964.863,111.143 965.116,111.083C965.556,110.98 965.844,105.961 975.424,103.231C977.619,102.606 982.959,102.829 984.573,103.212C989.332,104.339 996.745,106.903 1000.691,117.43C1003.257,124.277 1005.797,145.282 993.451,155.44C993.133,155.702 989.834,158.877 982.554,159.879C975.012,160.917 968.544,157.499 965.737,153.188C965.424,152.708 965.477,152.437 964.486,152.455C964.247,152.459 964.026,152.61 963.788,152.614Z" style="fill:rgb(2,2,1);"/>
        <path d="M593.558,110.426C593.837,110.361 594.116,110.296 594.395,110.231C594.552,110.075 594.795,110.024 594.952,109.868C595.313,109.507 594.89,109.401 595.012,103.493C595.036,102.294 594.953,102.313 594.932,88.502C594.928,85.491 595.021,84.418 597.493,84.317C597.993,84.296 605.78,84.331 606.501,84.334C606.805,84.335 609.678,84.348 610.28,84.792C611.61,85.774 610.808,88.836 611.057,99.503C611.057,99.508 611.052,111.464 611.052,112.504C611.037,153.013 611.079,153.005 610.978,156.525C610.902,159.149 610.122,159.075 607.502,159.074C597.435,159.071 597.415,159.289 596.576,159.043C594.609,158.465 594.99,156.299 595.262,153.52C595.277,153.373 595.417,151.939 595.218,151.683C595.082,151.51 594.048,151.446 593.729,151.733C593.263,152.153 593.869,153.058 590.825,155.86C583.559,162.551 569.654,161.431 562.391,152.587C553.668,141.964 554.267,118.794 562.744,109.722C569.279,102.727 575.831,102.654 581.464,102.908C582.98,102.976 587.238,104.078 589.347,105.704C589.503,105.824 591.408,107.547 591.43,107.57C592.681,108.847 592.56,108.929 593.558,110.426Z" style="fill:rgb(2,1,1);"/>
        <path d="M191.5,106.958C190.421,106.956 187.487,107.189 186.706,106.314C186.356,105.922 185.605,103.412 185.134,102.731C180.741,96.371 166.017,97.631 164.42,104.481C162.619,112.204 176.871,113.757 182.567,115.243C194.394,118.327 198.19,121.768 199.275,122.753C208.217,130.861 205.413,144.387 203.189,148.336C198.66,156.375 190.526,158.54 190.517,158.544C188.828,159.141 184.767,160.014 184.445,160.052C173.143,161.396 168.175,160.336 166.54,160.142C143,157.353 143.347,137.37 144.122,136.268C144.941,135.103 146.066,135.266 150.499,135.257C160.719,135.236 161.038,135.278 161.581,136.456C161.639,136.58 162.339,144.133 171.559,145.117C186.872,146.753 189.622,137.937 184.204,133.915C183.217,133.182 181.458,131.877 169.589,129.151C152.512,125.23 147.361,120.441 145.291,109.535C144.376,104.714 146.548,97.026 149.349,93.391C155.651,85.215 165.133,84.061 167.48,83.43C171.635,82.313 182.011,83.103 182.568,83.237C192.072,85.534 197.833,88.208 202.191,96.655C203.53,99.252 205.35,105.933 203.634,106.721C202.411,107.283 193.346,107.001 191.5,106.958Z" style="fill:rgb(252,252,252);"/>
        <path d="M125.502,106.958C120.006,107.086 120.008,107.106 119.539,107.016C117.342,106.595 117.885,104.903 116.449,102.536C113.094,97.005 96.512,96.376 95.853,105.519C95.354,112.454 108.316,113.528 115.459,115.631C120.568,117.136 125.223,118.21 130.542,122.453C135.635,126.515 140.096,137.609 134.502,148.501C133.638,150.184 131.312,152.964 131.139,153.138C129.021,155.268 123.479,158.804 116.581,159.931C112.624,160.577 99.58,161.492 91.459,158.613C87.878,157.344 79.71,154.457 76.499,144.5C75.83,142.423 76.078,142.386 75.434,138.51C74.775,134.543 77.092,135.198 82.501,135.203C91.529,135.21 92.558,134.919 93.291,136.579C93.496,137.044 93.932,145.545 106.495,145.256C108.743,145.204 111.316,145.319 114.557,143.598C118.829,141.33 120.845,133.491 108.586,131.031C107.846,130.883 107.872,130.82 99.422,128.829C83.584,125.097 79.581,119.456 77.458,112.514C76.34,108.856 76.877,102.651 77.214,101.425C78.716,95.967 80.59,93.555 83.036,91.048C88.913,85.025 95.987,84.103 98.474,83.412C100.188,82.937 110.058,82.26 114.483,83.555C116.287,84.083 124.417,84.925 130.73,92.315C134.823,97.106 136.191,105.086 135.278,106.323C134.712,107.09 133.184,106.953 125.502,106.958Z" style="fill:rgb(252,252,252);"/>
        <path d="M344.482,82.95C345.802,83.08 355.098,83.996 360.379,87.677C361.42,88.402 368.379,92.232 369.896,103.451C370.361,106.888 368.312,106.015 357.493,106.082C355.868,106.092 355.806,106.465 354.328,105.772C352.782,105.048 353.82,98.708 344.538,97.265C338.683,96.354 329.204,98.132 329.77,105.47C330.78,118.579 373.435,109.116 371.274,139.483C371.217,140.288 371.308,143.867 368.663,148.595C368.634,148.646 366.327,152.25 364.523,153.528C363.603,154.181 359.709,158.222 348.555,159.806C347.447,159.963 338.568,160.621 333.471,159.642C329.246,158.831 325.32,158.448 318.832,154.04C317.911,153.413 314.61,149.981 313.401,147.554C310.415,141.561 310.179,135.933 311.404,135.348C311.916,135.103 312.161,134.986 318.497,134.997C325.04,135.009 325.034,134.968 325.586,135.1C328.26,135.739 325.938,138.843 330.284,142.752C335.199,147.174 346.662,147.146 351.369,143.336C355.493,139.997 356.197,132.772 345.603,130.098C328.727,125.839 315.502,124.365 312.37,109.523C311.872,107.161 312.079,101.879 313.293,98.427C319.427,80.969 343.218,82.933 344.482,82.95Z" style="fill:rgb(2,1,1);"/>
        <path d="M797.471,82.965C799.481,83.336 799.471,83.268 801.46,83.702C802.053,83.831 811.519,84.355 817.655,92.388C820.731,96.415 822.894,104.073 821.564,105.557C820.944,106.248 820.046,106.067 808.498,106.166C805.133,106.194 805.872,104.83 804.754,102.378C801.215,94.611 781.255,95.071 782.084,105.541C782.764,114.143 798.767,111.906 812.58,119.356C818.204,122.39 820.334,126.559 820.751,127.375C822.555,130.906 823.022,133.164 823.051,138.497C823.106,148.504 815.915,155.54 808.62,157.866C793.406,162.718 777.669,159.265 771.67,154.291C766.222,149.773 764.574,146.039 763.355,139.523C762.543,135.179 764.165,135.111 765.471,135.075C766.273,135.053 766.262,135.169 775.499,134.983C778.199,134.929 778.678,134.916 779.47,137.509C780.561,141.083 783.33,146.67 795.464,146.074C808.114,145.452 810.162,133.474 798.591,130.215C783.371,125.928 773.538,125.798 767.175,115.692C764.602,111.606 761.738,98.151 772.408,89.381C774.711,87.488 779.372,84.714 784.563,83.893C787.536,83.423 787.488,83.184 790.482,83.017C793.346,82.858 793.336,82.886 797.471,82.965Z" style="fill:rgb(1,1,1);"/>
        <path d="M448.499,159.064C439.18,158.864 437.748,159.689 437.228,157.57C437.061,156.89 437.169,144.867 437.146,90.499C437.143,85.8 436.673,84.328 440.497,84.304C451.918,84.233 451.951,84.373 452.39,84.669C453.261,85.259 453.236,85.487 453.217,98.499C453.203,108.025 453.149,108.023 452.956,109.458C452.854,110.214 452.57,110.392 453.242,110.774C453.585,110.969 453.934,111.277 454.328,111.248C454.729,111.219 454.678,109.219 458.328,106.27C461.431,103.763 471.004,100.291 480.583,105.348C483.402,106.837 487.322,110.623 488.756,115.416C490.638,121.706 489.809,127.81 490.056,138.499C490.084,139.699 489.991,139.68 489.983,153.499C489.981,156.984 490.73,158.909 487.527,158.991C482.889,159.109 477.39,159.085 476.508,159.081C473.189,159.066 473.724,157.261 473.712,153.499C473.622,125.368 474.113,125.185 472.438,121.53C469.327,114.74 457.13,114.542 454.097,123.356C453.093,126.274 453.215,126.338 453.205,142.5C453.196,156.777 453.402,157.816 452.589,158.608C452.545,158.651 452.582,158.931 448.499,159.064Z" style="fill:rgb(2,2,2);"/>
        <path d="M931.501,159.06C925.853,158.93 925.843,159.029 925.368,158.906C923.044,158.302 924.675,154.065 923.997,153.118C923.465,152.377 923.385,152.163 922.555,152.57C922.3,152.695 922.71,153.022 920.36,155.359C914.019,161.666 900.311,161.701 893.685,155.307C888.864,150.655 888.839,146.551 888.874,142.51C888.943,134.565 893.815,130.903 894.49,130.486C899.278,127.521 899.602,127.61 904.487,126.443C907.257,125.782 917.73,125.471 920.538,124.62C925.259,123.191 923.346,115.988 916.541,115.185C909.494,114.354 906.647,118.538 906.144,119.277C904.672,121.439 904.38,121.496 901.565,121.092C896.211,120.324 892.032,119.847 891.57,119.413C891.175,119.042 890.097,118.03 892.99,112.793C893.415,112.024 896.334,108.763 898.428,107.396C903.09,104.354 905.495,104.121 907.526,103.603C914.269,101.883 922.759,103.088 926.48,104.551C931.034,106.342 931.136,106.785 933.512,108.485C935.818,110.134 938.783,115.031 938.907,120.489C939.001,124.672 938.937,156.062 938.932,156.506C938.893,159.901 937.265,158.876 931.501,159.06Z" style="fill:rgb(2,1,1);"/>
        <path d="M727.54,102.937C733.054,102.755 741.45,101.967 749.412,108.611C759.721,117.214 758.083,133.832 757.789,134.646C757.162,136.386 756.433,135.539 742.501,135.658C722.563,135.83 722.282,135.251 721.264,136.319C719.966,137.68 722.47,147.743 732.495,147.882C740.744,147.997 742.101,142.287 743.609,141.755C744.961,141.279 755.837,142.879 756.994,144.11C757.8,144.968 756.661,147.058 756.064,148.274C754.505,151.447 750.11,157.01 742.598,158.876C737.888,160.047 735.144,160.097 734.488,160.109C729.137,160.206 726.545,160.112 720.345,157.971C712.488,155.259 704.634,146.744 704.61,132.501C704.597,124.363 705.571,122.245 706.152,120.393C708.319,113.496 713.268,108.87 715.499,107.498C719.284,105.169 721.241,103.981 727.54,102.937Z" style="fill:rgb(2,1,1);"/>
        <path d="M528.463,102.941C535.046,104.054 545.619,106.882 549.556,121.485C549.704,122.032 549.922,122.841 550.629,128.486C550.751,129.459 550.905,133.681 550.594,134.543C550.128,135.833 549.311,135.656 538.502,135.743C514.865,135.933 514.286,135.323 513.782,136.625C513.23,138.048 515.237,148.504 526.522,147.862C529.234,147.708 532.87,146.231 534.549,143.535C535.697,141.693 535.963,141.408 540.446,141.979C542.668,142.262 548.747,143.513 549.258,143.863C550.204,144.512 549.493,146.27 549.414,146.463C542.444,163.689 518.387,161.562 510.352,156.773C509.583,156.315 506.279,154.841 502.284,149.66C499.849,146.502 494.903,135.671 498.47,122.492C499.928,117.105 502.008,111.339 510.365,106.253C516.267,102.661 523.331,102.792 524.495,102.814C524.812,102.819 524.789,102.823 528.463,102.941Z" style="fill:rgb(2,1,1);"/>
        <path d="M846.05,129.498C846.048,131.733 846.024,157.352 846.001,157.439C845.56,159.102 845.201,159.006 843.493,159.079C840.125,159.223 840.133,158.841 833.501,159.069C829.447,159.208 830.074,157.536 830.081,153.492C830.117,132.345 830.084,112.104 830.078,108.506C830.073,105.331 829.336,104.049 832.515,103.865C832.594,103.861 842.92,103.804 843.479,103.825C846.728,103.95 845.67,106.971 845.601,109.483C845.592,109.801 845.457,110.173 845.634,110.437C845.653,110.464 847.044,111.013 847.06,111C847.561,110.603 847.171,109.514 851.221,106.153C858.755,99.899 881.961,100.611 882.016,123.498C882.019,124.778 881.927,124.757 881.961,139.494C881.991,152.51 882.006,153.297 882.028,154.497C882.034,154.818 882.088,157.808 881.468,158.47C880.889,159.087 880.753,159.071 869.503,159.065C869.347,159.065 867.634,159.064 867.552,159.044C865.59,158.563 865.899,157.816 865.891,146.499C865.878,125.061 866.162,124.927 864.636,121.44C862.024,115.471 849.888,113.669 846.795,123.587C845.901,126.455 846.098,126.488 846.05,129.498Z" style="fill:rgb(2,2,2);"/>
        <path d="M663.5,159.062C658.181,158.885 658.034,159.195 657.431,158.574C656.396,157.509 657.184,152.667 657.175,152.539C657.166,152.404 656.997,152.31 656.994,152.174C656.991,151.985 657.252,151.796 657.159,151.631C657.051,151.44 656.768,151.398 656.549,151.386C655.709,151.341 655.682,151.433 655.235,152.143C655.14,152.293 654.167,153.836 654.04,154.015C653.923,154.179 650.829,156.958 649.565,157.612C647.09,158.893 645.641,159.081 643.512,159.56C643.039,159.667 640.454,160.248 637.448,159.808C623.215,157.721 621.434,146.532 620.951,143.447C620.642,141.475 620.707,141.464 620.752,118.502C620.773,107.707 620.569,105.491 620.931,104.741C621.504,103.555 625.834,103.839 626.499,103.837C634.896,103.82 636.475,103.456 636.832,105.444C637.066,106.75 636.52,134.34 637.168,138.559C638.646,148.167 653.03,148.129 655.765,138.58C656.733,135.196 656.041,116.957 656.275,106.493C656.307,105.096 656.488,103.946 658.525,103.847C658.939,103.827 670.298,103.844 670.46,103.867C670.871,103.927 672.059,104.168 672.227,105.539C672.238,105.624 672.348,156.457 672.205,157.452C671.913,159.493 670.96,158.903 663.5,159.062Z" style="fill:rgb(1,1,1);"/>
        <path d="M394.044,132.5C393.626,149.921 409.889,149.659 413.652,142.586C414.229,141.501 414.507,140.694 414.566,140.524C415.34,138.273 415.539,137.766 418.543,138.12C423.052,138.651 423.015,138.828 427.525,139.274C430.882,139.606 430.311,141.732 429.136,145.382C426.139,154.696 417.516,158.688 410.563,159.8C408.225,160.174 401.885,160.44 398.465,159.643C396.089,159.09 390.693,158.345 385.446,153.559C375.289,144.292 373.269,121.622 385.648,109.654C393.557,102.007 404.4,102.718 408.474,102.885C410.563,102.97 416.448,104.02 420.393,106.667C421.655,107.513 427.164,110.645 429.491,118.502C429.58,118.802 430.38,121.501 430.022,122.365C429.36,123.967 428.53,123.441 421.501,124.511C415.991,125.35 415.483,124.792 415.031,123.711C414.332,122.038 414.363,119.76 410.639,117.269C407.285,115.024 398.142,114.478 395.162,123.386C393.884,127.208 394.058,127.976 394.044,132.5Z" style="fill:rgb(2,1,1);"/>
        <path d="M690.5,159.072C683.429,159.077 682.432,159.253 681.654,158.38C680.917,157.552 681.296,157.389 681.214,132.501C681.201,128.819 681.068,88.4 681.305,86.478C681.653,83.651 683.289,84.321 692.5,84.28C696.085,84.264 697.349,83.902 697.427,87.502C697.491,90.462 697.187,90.44 697.428,124.5C697.444,126.788 697.471,156.319 697.269,157.444C696.905,159.464 694.334,158.979 690.5,159.072Z" style="fill:rgb(2,2,2);"/>
        <path d="M584.515,116.085C585.635,116.194 586.697,115.933 589.488,117.518C590.934,118.339 594.792,121.927 594.96,129.478C594.987,130.703 596.461,143.636 586.49,146.465C581.589,147.856 572.806,145.157 572.875,131.499C572.906,125.41 573.8,123.288 575.52,120.515C575.904,119.896 577.018,118.438 578.557,117.592C581.691,115.869 582.865,116.149 584.515,116.085Z" style="fill:rgb(252,252,252);"/>
        <path d="M985.95,131.507C985.989,132.867 986.403,137.051 983.685,141.618C979.194,149.164 966.905,149.351 964.218,136.569C964.037,135.707 963.558,128.256 964.38,125.463C964.566,124.828 966.104,117.74 972.445,116.275C976.196,115.409 980.776,117.139 982.542,119.465C986.539,124.727 985.95,129.387 985.95,131.507Z" style="fill:rgb(252,251,252);"/>
        <path d="M912.448,136.055C919.903,134.811 919.912,134.902 920.558,134.781C921.89,134.532 922.146,134.114 922.931,135.214C923.295,135.725 923.148,138.114 923.142,138.492C922.938,151.951 902.579,151.252 904.461,141.493C905.435,136.44 912.333,136.073 912.448,136.055Z" style="fill:rgb(251,251,251);"/>
        <path d="M732.51,115.132C733.255,115.212 734.543,115.032 737.528,116.444C741.367,118.26 742.243,121.697 742.488,122.503C742.548,122.699 743.093,124.492 742.187,125.038C741.824,125.257 741.8,125.308 724.502,125.381C722.376,125.39 720.344,125.682 721.496,122.499C724.265,114.844 731.614,115.165 732.51,115.132Z" style="fill:rgb(251,251,251);"/>
        <path d="M534.937,122.39C534.969,122.779 535.189,123.137 535.221,123.526C535.352,125.114 533.665,125.223 533.469,125.236C532.195,125.319 530.712,125.415 517.503,125.291C517.28,125.289 515.083,125.268 514.723,125.079C512.803,124.073 516.13,115.257 524.49,115.119C525.086,115.109 528.763,115.048 531.597,117.377C534.175,119.495 534.477,121.189 534.937,122.39Z" style="fill:rgb(251,251,251);"/>
    </g>
</svg>
